<mxfile host="app.diagrams.net" modified="2021-06-05T09:52:26.212Z" agent="5.0 (Windows NT 10.0; Win64; x64) AppleWebKit/537.36 (KHTML, like Gecko) Chrome/88.0.4324.182 Safari/537.36" etag="MCX4T0meZboF3FEvYa07" version="14.7.6" type="github">
  <diagram id="NWs0bCM0FhklyOAdTJhX" name="Page-1">
    <mxGraphModel dx="2045" dy="1242" grid="1" gridSize="10" guides="1" tooltips="1" connect="1" arrows="1" fold="1" page="1" pageScale="1" pageWidth="3300" pageHeight="4681" math="0" shadow="0">
      <root>
        <mxCell id="0" />
        <mxCell id="1" parent="0" />
        <mxCell id="0SITJnCV9gItB9W7rhjN-3" value="" style="edgeStyle=orthogonalEdgeStyle;rounded=0;orthogonalLoop=1;jettySize=auto;html=1;" edge="1" parent="1" source="0SITJnCV9gItB9W7rhjN-1" target="0SITJnCV9gItB9W7rhjN-2">
          <mxGeometry relative="1" as="geometry" />
        </mxCell>
        <mxCell id="0SITJnCV9gItB9W7rhjN-1" value="FUNCTION login_interface(main_title, data_clients, data_carlist, space_cars, space_clients)" style="shape=process;whiteSpace=wrap;html=1;backgroundOutline=1;" vertex="1" parent="1">
          <mxGeometry x="430" y="160" width="290" height="80" as="geometry" />
        </mxCell>
        <mxCell id="0SITJnCV9gItB9W7rhjN-5" value="" style="edgeStyle=orthogonalEdgeStyle;rounded=0;orthogonalLoop=1;jettySize=auto;html=1;" edge="1" parent="1" source="0SITJnCV9gItB9W7rhjN-2" target="0SITJnCV9gItB9W7rhjN-4">
          <mxGeometry relative="1" as="geometry" />
        </mxCell>
        <mxCell id="0SITJnCV9gItB9W7rhjN-2" value="i = 0" style="rounded=1;whiteSpace=wrap;html=1;" vertex="1" parent="1">
          <mxGeometry x="460" y="290" width="230" height="40" as="geometry" />
        </mxCell>
        <mxCell id="0SITJnCV9gItB9W7rhjN-7" value="" style="edgeStyle=orthogonalEdgeStyle;rounded=0;orthogonalLoop=1;jettySize=auto;html=1;" edge="1" parent="1" source="0SITJnCV9gItB9W7rhjN-4" target="0SITJnCV9gItB9W7rhjN-6">
          <mxGeometry relative="1" as="geometry" />
        </mxCell>
        <mxCell id="0SITJnCV9gItB9W7rhjN-4" value="login_details = login_menu(main_title)" style="rounded=1;whiteSpace=wrap;html=1;" vertex="1" parent="1">
          <mxGeometry x="460" y="380" width="230" height="40" as="geometry" />
        </mxCell>
        <mxCell id="0SITJnCV9gItB9W7rhjN-9" value="" style="edgeStyle=orthogonalEdgeStyle;rounded=0;orthogonalLoop=1;jettySize=auto;html=1;" edge="1" parent="1" source="0SITJnCV9gItB9W7rhjN-6" target="0SITJnCV9gItB9W7rhjN-8">
          <mxGeometry relative="1" as="geometry" />
        </mxCell>
        <mxCell id="0SITJnCV9gItB9W7rhjN-6" value="username_key = check_usernameID(data_clients, login_details[0])" style="shape=process;whiteSpace=wrap;html=1;backgroundOutline=1;" vertex="1" parent="1">
          <mxGeometry x="455" y="470" width="240" height="70" as="geometry" />
        </mxCell>
        <mxCell id="0SITJnCV9gItB9W7rhjN-11" value="" style="edgeStyle=orthogonalEdgeStyle;rounded=0;orthogonalLoop=1;jettySize=auto;html=1;" edge="1" parent="1" source="0SITJnCV9gItB9W7rhjN-8" target="0SITJnCV9gItB9W7rhjN-10">
          <mxGeometry relative="1" as="geometry" />
        </mxCell>
        <mxCell id="0SITJnCV9gItB9W7rhjN-8" value="password_key = check_password(data_clients, login_details[0], login_details[1])" style="shape=process;whiteSpace=wrap;html=1;backgroundOutline=1;" vertex="1" parent="1">
          <mxGeometry x="455" y="600" width="240" height="70" as="geometry" />
        </mxCell>
        <mxCell id="0SITJnCV9gItB9W7rhjN-13" value="" style="edgeStyle=orthogonalEdgeStyle;rounded=0;orthogonalLoop=1;jettySize=auto;html=1;" edge="1" parent="1" source="0SITJnCV9gItB9W7rhjN-10" target="0SITJnCV9gItB9W7rhjN-12">
          <mxGeometry relative="1" as="geometry" />
        </mxCell>
        <mxCell id="0SITJnCV9gItB9W7rhjN-17" value="" style="edgeStyle=orthogonalEdgeStyle;rounded=0;orthogonalLoop=1;jettySize=auto;html=1;" edge="1" parent="1" source="0SITJnCV9gItB9W7rhjN-10" target="0SITJnCV9gItB9W7rhjN-16">
          <mxGeometry relative="1" as="geometry" />
        </mxCell>
        <mxCell id="0SITJnCV9gItB9W7rhjN-10" value="username_key == 1 AND password_key &gt;= 1" style="rhombus;whiteSpace=wrap;html=1;" vertex="1" parent="1">
          <mxGeometry x="750" y="720" width="170" height="100" as="geometry" />
        </mxCell>
        <mxCell id="0SITJnCV9gItB9W7rhjN-15" value="" style="edgeStyle=orthogonalEdgeStyle;rounded=0;orthogonalLoop=1;jettySize=auto;html=1;" edge="1" parent="1" source="0SITJnCV9gItB9W7rhjN-12" target="0SITJnCV9gItB9W7rhjN-14">
          <mxGeometry relative="1" as="geometry" />
        </mxCell>
        <mxCell id="0SITJnCV9gItB9W7rhjN-12" value="PRINT(&quot;You have successfully login!&quot;)" style="rounded=1;whiteSpace=wrap;html=1;" vertex="1" parent="1">
          <mxGeometry x="720" y="870" width="230" height="40" as="geometry" />
        </mxCell>
        <mxCell id="0SITJnCV9gItB9W7rhjN-57" style="edgeStyle=orthogonalEdgeStyle;rounded=0;orthogonalLoop=1;jettySize=auto;html=1;" edge="1" parent="1" source="0SITJnCV9gItB9W7rhjN-14">
          <mxGeometry relative="1" as="geometry">
            <mxPoint x="1000" y="980" as="targetPoint" />
          </mxGeometry>
        </mxCell>
        <mxCell id="0SITJnCV9gItB9W7rhjN-14" value="BREAK" style="rounded=1;whiteSpace=wrap;html=1;" vertex="1" parent="1">
          <mxGeometry x="720" y="960" width="230" height="40" as="geometry" />
        </mxCell>
        <mxCell id="0SITJnCV9gItB9W7rhjN-19" value="" style="edgeStyle=orthogonalEdgeStyle;rounded=0;orthogonalLoop=1;jettySize=auto;html=1;" edge="1" parent="1" source="0SITJnCV9gItB9W7rhjN-16" target="0SITJnCV9gItB9W7rhjN-18">
          <mxGeometry relative="1" as="geometry" />
        </mxCell>
        <mxCell id="0SITJnCV9gItB9W7rhjN-23" value="" style="edgeStyle=orthogonalEdgeStyle;rounded=0;orthogonalLoop=1;jettySize=auto;html=1;" edge="1" parent="1" source="0SITJnCV9gItB9W7rhjN-16" target="0SITJnCV9gItB9W7rhjN-21">
          <mxGeometry relative="1" as="geometry" />
        </mxCell>
        <mxCell id="0SITJnCV9gItB9W7rhjN-16" value="username_key == 1 AND password_key == 0" style="rhombus;whiteSpace=wrap;html=1;" vertex="1" parent="1">
          <mxGeometry x="500" y="720" width="170" height="100" as="geometry" />
        </mxCell>
        <mxCell id="0SITJnCV9gItB9W7rhjN-26" style="edgeStyle=orthogonalEdgeStyle;rounded=0;orthogonalLoop=1;jettySize=auto;html=1;entryX=0.5;entryY=0;entryDx=0;entryDy=0;" edge="1" parent="1" source="0SITJnCV9gItB9W7rhjN-18" target="0SITJnCV9gItB9W7rhjN-24">
          <mxGeometry relative="1" as="geometry" />
        </mxCell>
        <mxCell id="0SITJnCV9gItB9W7rhjN-18" value="PRINT(&quot;Wrong password. Failed to login.&quot;)" style="rounded=1;whiteSpace=wrap;html=1;" vertex="1" parent="1">
          <mxGeometry x="470" y="870" width="230" height="40" as="geometry" />
        </mxCell>
        <mxCell id="0SITJnCV9gItB9W7rhjN-20" value="" style="edgeStyle=orthogonalEdgeStyle;rounded=0;orthogonalLoop=1;jettySize=auto;html=1;" edge="1" parent="1" source="0SITJnCV9gItB9W7rhjN-21" target="0SITJnCV9gItB9W7rhjN-22">
          <mxGeometry relative="1" as="geometry" />
        </mxCell>
        <mxCell id="0SITJnCV9gItB9W7rhjN-21" value="username_key == 1 AND password_key &gt;= 1" style="rhombus;whiteSpace=wrap;html=1;" vertex="1" parent="1">
          <mxGeometry x="240" y="720" width="170" height="100" as="geometry" />
        </mxCell>
        <mxCell id="0SITJnCV9gItB9W7rhjN-25" style="edgeStyle=orthogonalEdgeStyle;rounded=0;orthogonalLoop=1;jettySize=auto;html=1;" edge="1" parent="1" source="0SITJnCV9gItB9W7rhjN-22" target="0SITJnCV9gItB9W7rhjN-24">
          <mxGeometry relative="1" as="geometry" />
        </mxCell>
        <mxCell id="0SITJnCV9gItB9W7rhjN-22" value="PRINT(&quot;Username does not exist. Failed to login.&quot;)" style="rounded=1;whiteSpace=wrap;html=1;" vertex="1" parent="1">
          <mxGeometry x="210" y="870" width="230" height="40" as="geometry" />
        </mxCell>
        <mxCell id="0SITJnCV9gItB9W7rhjN-31" value="" style="edgeStyle=orthogonalEdgeStyle;rounded=0;orthogonalLoop=1;jettySize=auto;html=1;" edge="1" parent="1" source="0SITJnCV9gItB9W7rhjN-24" target="0SITJnCV9gItB9W7rhjN-27">
          <mxGeometry relative="1" as="geometry" />
        </mxCell>
        <mxCell id="0SITJnCV9gItB9W7rhjN-24" value="i = i + 1" style="rounded=1;whiteSpace=wrap;html=1;" vertex="1" parent="1">
          <mxGeometry x="340" y="1040" width="230" height="40" as="geometry" />
        </mxCell>
        <mxCell id="0SITJnCV9gItB9W7rhjN-29" value="" style="edgeStyle=orthogonalEdgeStyle;rounded=0;orthogonalLoop=1;jettySize=auto;html=1;" edge="1" parent="1" source="0SITJnCV9gItB9W7rhjN-27" target="0SITJnCV9gItB9W7rhjN-28">
          <mxGeometry relative="1" as="geometry" />
        </mxCell>
        <mxCell id="0SITJnCV9gItB9W7rhjN-43" style="edgeStyle=orthogonalEdgeStyle;rounded=0;orthogonalLoop=1;jettySize=auto;html=1;" edge="1" parent="1" source="0SITJnCV9gItB9W7rhjN-27">
          <mxGeometry relative="1" as="geometry">
            <mxPoint x="580" y="350" as="targetPoint" />
            <Array as="points">
              <mxPoint x="190" y="1160" />
              <mxPoint x="190" y="350" />
            </Array>
          </mxGeometry>
        </mxCell>
        <mxCell id="0SITJnCV9gItB9W7rhjN-27" value="i &amp;gt; 4" style="rhombus;whiteSpace=wrap;html=1;" vertex="1" parent="1">
          <mxGeometry x="400" y="1110" width="110" height="100" as="geometry" />
        </mxCell>
        <mxCell id="0SITJnCV9gItB9W7rhjN-56" style="edgeStyle=orthogonalEdgeStyle;rounded=0;orthogonalLoop=1;jettySize=auto;html=1;entryX=0.5;entryY=0;entryDx=0;entryDy=0;" edge="1" parent="1" source="0SITJnCV9gItB9W7rhjN-28" target="0SITJnCV9gItB9W7rhjN-44">
          <mxGeometry relative="1" as="geometry">
            <Array as="points">
              <mxPoint x="1000" y="1270" />
              <mxPoint x="1000" y="270" />
              <mxPoint x="1235" y="270" />
            </Array>
          </mxGeometry>
        </mxCell>
        <mxCell id="0SITJnCV9gItB9W7rhjN-28" value="BREAK" style="rounded=1;whiteSpace=wrap;html=1;" vertex="1" parent="1">
          <mxGeometry x="383" y="1250" width="145" height="40" as="geometry" />
        </mxCell>
        <mxCell id="0SITJnCV9gItB9W7rhjN-32" value="True" style="text;html=1;align=center;verticalAlign=middle;resizable=0;points=[];autosize=1;strokeColor=none;" vertex="1" parent="1">
          <mxGeometry x="330" y="820" width="40" height="20" as="geometry" />
        </mxCell>
        <mxCell id="0SITJnCV9gItB9W7rhjN-33" value="True" style="text;html=1;align=center;verticalAlign=middle;resizable=0;points=[];autosize=1;strokeColor=none;" vertex="1" parent="1">
          <mxGeometry x="590" y="820" width="40" height="20" as="geometry" />
        </mxCell>
        <mxCell id="0SITJnCV9gItB9W7rhjN-34" value="True" style="text;html=1;align=center;verticalAlign=middle;resizable=0;points=[];autosize=1;strokeColor=none;" vertex="1" parent="1">
          <mxGeometry x="840" y="820" width="40" height="20" as="geometry" />
        </mxCell>
        <mxCell id="0SITJnCV9gItB9W7rhjN-35" value="False" style="text;html=1;align=center;verticalAlign=middle;resizable=0;points=[];autosize=1;strokeColor=none;" vertex="1" parent="1">
          <mxGeometry x="460" y="750" width="40" height="20" as="geometry" />
        </mxCell>
        <mxCell id="0SITJnCV9gItB9W7rhjN-36" value="False" style="text;html=1;align=center;verticalAlign=middle;resizable=0;points=[];autosize=1;strokeColor=none;" vertex="1" parent="1">
          <mxGeometry x="710" y="750" width="40" height="20" as="geometry" />
        </mxCell>
        <mxCell id="0SITJnCV9gItB9W7rhjN-37" value="True" style="text;html=1;align=center;verticalAlign=middle;resizable=0;points=[];autosize=1;strokeColor=none;" vertex="1" parent="1">
          <mxGeometry x="460" y="1210" width="40" height="20" as="geometry" />
        </mxCell>
        <mxCell id="0SITJnCV9gItB9W7rhjN-41" value="False" style="text;html=1;align=center;verticalAlign=middle;resizable=0;points=[];autosize=1;strokeColor=none;" vertex="1" parent="1">
          <mxGeometry x="360" y="1140" width="40" height="20" as="geometry" />
        </mxCell>
        <mxCell id="0SITJnCV9gItB9W7rhjN-47" value="" style="edgeStyle=orthogonalEdgeStyle;rounded=0;orthogonalLoop=1;jettySize=auto;html=1;" edge="1" parent="1" source="0SITJnCV9gItB9W7rhjN-44" target="0SITJnCV9gItB9W7rhjN-45">
          <mxGeometry relative="1" as="geometry" />
        </mxCell>
        <mxCell id="0SITJnCV9gItB9W7rhjN-44" value="i = 0" style="rounded=1;whiteSpace=wrap;html=1;" vertex="1" parent="1">
          <mxGeometry x="1120" y="290" width="230" height="40" as="geometry" />
        </mxCell>
        <mxCell id="0SITJnCV9gItB9W7rhjN-49" value="" style="edgeStyle=orthogonalEdgeStyle;rounded=0;orthogonalLoop=1;jettySize=auto;html=1;" edge="1" parent="1" source="0SITJnCV9gItB9W7rhjN-45" target="0SITJnCV9gItB9W7rhjN-48">
          <mxGeometry relative="1" as="geometry" />
        </mxCell>
        <mxCell id="0SITJnCV9gItB9W7rhjN-45" value="general_menu(menu)" style="shape=process;whiteSpace=wrap;html=1;backgroundOutline=1;" vertex="1" parent="1">
          <mxGeometry x="1115" y="380" width="240" height="40" as="geometry" />
        </mxCell>
        <mxCell id="0SITJnCV9gItB9W7rhjN-51" value="" style="edgeStyle=orthogonalEdgeStyle;rounded=0;orthogonalLoop=1;jettySize=auto;html=1;" edge="1" parent="1" source="0SITJnCV9gItB9W7rhjN-48" target="0SITJnCV9gItB9W7rhjN-50">
          <mxGeometry relative="1" as="geometry" />
        </mxCell>
        <mxCell id="0SITJnCV9gItB9W7rhjN-48" value="PRINT(&quot;Please Select: &quot;)" style="rounded=1;whiteSpace=wrap;html=1;" vertex="1" parent="1">
          <mxGeometry x="1120" y="470" width="230" height="40" as="geometry" />
        </mxCell>
        <mxCell id="0SITJnCV9gItB9W7rhjN-53" value="" style="edgeStyle=orthogonalEdgeStyle;rounded=0;orthogonalLoop=1;jettySize=auto;html=1;" edge="1" parent="1" source="0SITJnCV9gItB9W7rhjN-50" target="0SITJnCV9gItB9W7rhjN-52">
          <mxGeometry relative="1" as="geometry" />
        </mxCell>
        <mxCell id="0SITJnCV9gItB9W7rhjN-50" value="READ choice" style="shape=parallelogram;perimeter=parallelogramPerimeter;whiteSpace=wrap;html=1;fixedSize=1;" vertex="1" parent="1">
          <mxGeometry x="1120" y="550" width="229" height="50" as="geometry" />
        </mxCell>
        <mxCell id="0SITJnCV9gItB9W7rhjN-55" value="" style="edgeStyle=orthogonalEdgeStyle;rounded=0;orthogonalLoop=1;jettySize=auto;html=1;" edge="1" parent="1" source="0SITJnCV9gItB9W7rhjN-52" target="0SITJnCV9gItB9W7rhjN-54">
          <mxGeometry relative="1" as="geometry" />
        </mxCell>
        <mxCell id="0SITJnCV9gItB9W7rhjN-78" style="edgeStyle=orthogonalEdgeStyle;rounded=0;orthogonalLoop=1;jettySize=auto;html=1;entryX=1;entryY=0.5;entryDx=0;entryDy=0;" edge="1" parent="1" source="0SITJnCV9gItB9W7rhjN-52" target="0SITJnCV9gItB9W7rhjN-45">
          <mxGeometry relative="1" as="geometry">
            <Array as="points">
              <mxPoint x="1410" y="690" />
              <mxPoint x="1410" y="400" />
            </Array>
          </mxGeometry>
        </mxCell>
        <mxCell id="0SITJnCV9gItB9W7rhjN-52" value="choice == &#39;1&#39; OR choice == &#39;2&#39;" style="rhombus;whiteSpace=wrap;html=1;" vertex="1" parent="1">
          <mxGeometry x="1140" y="640" width="190" height="100" as="geometry" />
        </mxCell>
        <mxCell id="0SITJnCV9gItB9W7rhjN-60" style="edgeStyle=orthogonalEdgeStyle;rounded=0;orthogonalLoop=1;jettySize=auto;html=1;entryX=0.5;entryY=0;entryDx=0;entryDy=0;exitX=0;exitY=0.5;exitDx=0;exitDy=0;" edge="1" parent="1" source="0SITJnCV9gItB9W7rhjN-54" target="0SITJnCV9gItB9W7rhjN-58">
          <mxGeometry relative="1" as="geometry" />
        </mxCell>
        <mxCell id="0SITJnCV9gItB9W7rhjN-54" value="BREAK" style="rounded=1;whiteSpace=wrap;html=1;" vertex="1" parent="1">
          <mxGeometry x="1163" y="780" width="145" height="40" as="geometry" />
        </mxCell>
        <mxCell id="0SITJnCV9gItB9W7rhjN-61" style="edgeStyle=orthogonalEdgeStyle;rounded=0;orthogonalLoop=1;jettySize=auto;html=1;entryX=0;entryY=0.5;entryDx=0;entryDy=0;" edge="1" parent="1" source="0SITJnCV9gItB9W7rhjN-58" target="0SITJnCV9gItB9W7rhjN-59">
          <mxGeometry relative="1" as="geometry" />
        </mxCell>
        <mxCell id="0SITJnCV9gItB9W7rhjN-63" style="edgeStyle=orthogonalEdgeStyle;rounded=0;orthogonalLoop=1;jettySize=auto;html=1;" edge="1" parent="1" source="0SITJnCV9gItB9W7rhjN-58" target="0SITJnCV9gItB9W7rhjN-62">
          <mxGeometry relative="1" as="geometry" />
        </mxCell>
        <mxCell id="0SITJnCV9gItB9W7rhjN-58" value="choice == &#39;1&#39;" style="rhombus;whiteSpace=wrap;html=1;" vertex="1" parent="1">
          <mxGeometry x="1080" y="880" width="110" height="100" as="geometry" />
        </mxCell>
        <mxCell id="0SITJnCV9gItB9W7rhjN-71" value="" style="edgeStyle=orthogonalEdgeStyle;rounded=0;orthogonalLoop=1;jettySize=auto;html=1;" edge="1" parent="1" source="0SITJnCV9gItB9W7rhjN-59" target="0SITJnCV9gItB9W7rhjN-69">
          <mxGeometry relative="1" as="geometry" />
        </mxCell>
        <mxCell id="0SITJnCV9gItB9W7rhjN-75" style="edgeStyle=orthogonalEdgeStyle;rounded=0;orthogonalLoop=1;jettySize=auto;html=1;" edge="1" parent="1" source="0SITJnCV9gItB9W7rhjN-59" target="0SITJnCV9gItB9W7rhjN-74">
          <mxGeometry relative="1" as="geometry" />
        </mxCell>
        <mxCell id="0SITJnCV9gItB9W7rhjN-59" value="choice == &#39;2&#39;" style="rhombus;whiteSpace=wrap;html=1;" vertex="1" parent="1">
          <mxGeometry x="1340" y="880" width="110" height="100" as="geometry" />
        </mxCell>
        <mxCell id="0SITJnCV9gItB9W7rhjN-67" value="" style="edgeStyle=orthogonalEdgeStyle;rounded=0;orthogonalLoop=1;jettySize=auto;html=1;" edge="1" parent="1" source="0SITJnCV9gItB9W7rhjN-62" target="0SITJnCV9gItB9W7rhjN-66">
          <mxGeometry relative="1" as="geometry" />
        </mxCell>
        <mxCell id="0SITJnCV9gItB9W7rhjN-62" value="password_key = login_interface(main_title, data_clients, data_carlist, space_cars, space_clients)" style="shape=process;whiteSpace=wrap;html=1;backgroundOutline=1;" vertex="1" parent="1">
          <mxGeometry x="1015" y="1025" width="240" height="70" as="geometry" />
        </mxCell>
        <mxCell id="0SITJnCV9gItB9W7rhjN-64" value="True" style="text;html=1;align=center;verticalAlign=middle;resizable=0;points=[];autosize=1;strokeColor=none;" vertex="1" parent="1">
          <mxGeometry x="1140" y="980" width="40" height="20" as="geometry" />
        </mxCell>
        <mxCell id="0SITJnCV9gItB9W7rhjN-65" value="False" style="text;html=1;align=center;verticalAlign=middle;resizable=0;points=[];autosize=1;strokeColor=none;" vertex="1" parent="1">
          <mxGeometry x="1190" y="910" width="40" height="20" as="geometry" />
        </mxCell>
        <mxCell id="0SITJnCV9gItB9W7rhjN-66" value="RETURN password_key" style="ellipse;whiteSpace=wrap;html=1;" vertex="1" parent="1">
          <mxGeometry x="1090" y="1150" width="90" height="80" as="geometry" />
        </mxCell>
        <mxCell id="0SITJnCV9gItB9W7rhjN-68" value="" style="edgeStyle=orthogonalEdgeStyle;rounded=0;orthogonalLoop=1;jettySize=auto;html=1;" edge="1" parent="1" source="0SITJnCV9gItB9W7rhjN-69" target="0SITJnCV9gItB9W7rhjN-70">
          <mxGeometry relative="1" as="geometry" />
        </mxCell>
        <mxCell id="0SITJnCV9gItB9W7rhjN-69" value="login_index = startup_interface(main_title, data_clients, data_carlist, space_cars, space_clients)" style="shape=process;whiteSpace=wrap;html=1;backgroundOutline=1;" vertex="1" parent="1">
          <mxGeometry x="1275" y="1025" width="240" height="70" as="geometry" />
        </mxCell>
        <mxCell id="0SITJnCV9gItB9W7rhjN-70" value="RETURN login_index" style="ellipse;whiteSpace=wrap;html=1;" vertex="1" parent="1">
          <mxGeometry x="1350" y="1150" width="90" height="80" as="geometry" />
        </mxCell>
        <mxCell id="0SITJnCV9gItB9W7rhjN-72" value="True" style="text;html=1;align=center;verticalAlign=middle;resizable=0;points=[];autosize=1;strokeColor=none;" vertex="1" parent="1">
          <mxGeometry x="1400" y="980" width="40" height="20" as="geometry" />
        </mxCell>
        <mxCell id="0SITJnCV9gItB9W7rhjN-74" value="RETURN password_key" style="ellipse;whiteSpace=wrap;html=1;" vertex="1" parent="1">
          <mxGeometry x="1515" y="890" width="90" height="80" as="geometry" />
        </mxCell>
        <mxCell id="0SITJnCV9gItB9W7rhjN-76" value="False" style="text;html=1;align=center;verticalAlign=middle;resizable=0;points=[];autosize=1;strokeColor=none;" vertex="1" parent="1">
          <mxGeometry x="1450" y="910" width="40" height="20" as="geometry" />
        </mxCell>
        <mxCell id="0SITJnCV9gItB9W7rhjN-77" value="True" style="text;html=1;align=center;verticalAlign=middle;resizable=0;points=[];autosize=1;strokeColor=none;" vertex="1" parent="1">
          <mxGeometry x="1235" y="740" width="40" height="20" as="geometry" />
        </mxCell>
      </root>
    </mxGraphModel>
  </diagram>
</mxfile>
